<mxfile modified="2020-07-18T07:51:13.825Z" host="www.draw.io" agent="Mozilla/5.0 (Macintosh; Intel Mac OS X 10_14_6) AppleWebKit/537.36 (KHTML, like Gecko) Chrome/84.0.4147.89 Safari/537.36" etag="Gxb9gEJxTZNEZ-cOwjIf" version="12.9.0" type="github">
  <diagram id="bazxHvl_UKXMVMI2n2-C" name="Page-1">
    <mxGraphModel dx="1230" dy="1243" grid="0" gridSize="10" guides="1" tooltips="1" connect="1" arrows="1" fold="1" page="1" pageScale="1" pageWidth="850" pageHeight="1100" background="none" math="0" shadow="0">
      <root>
        <mxCell id="0" />
        <mxCell id="1" parent="0" />
        <mxCell id="zHzab9P2DYDksBdTa2nC-3" value="AWSDC" style="outlineConnect=0;gradientColor=none;html=1;whiteSpace=wrap;fontSize=12;fontStyle=0;shape=mxgraph.aws4.group;grIcon=mxgraph.aws4.group_vpc;strokeColor=#879196;fillColor=none;verticalAlign=top;align=left;spacingLeft=30;fontColor=#879196;dashed=0;" parent="1" vertex="1">
          <mxGeometry x="556" y="118" width="282" height="553" as="geometry" />
        </mxCell>
        <mxCell id="zHzab9P2DYDksBdTa2nC-11" value="&amp;nbsp; &amp;nbsp; Private Subnet" style="outlineConnect=0;gradientColor=none;html=1;whiteSpace=wrap;fontSize=12;fontStyle=0;shape=mxgraph.aws4.group;grIcon=mxgraph.aws4.group_subnet;strokeColor=#879196;fillColor=none;verticalAlign=top;align=left;spacingLeft=30;fontColor=#879196;dashed=0;" parent="1" vertex="1">
          <mxGeometry x="638" y="341" width="160" height="210" as="geometry" />
        </mxCell>
        <mxCell id="zHzab9P2DYDksBdTa2nC-8" value="Public Subnet" style="outlineConnect=0;gradientColor=none;html=1;whiteSpace=wrap;fontSize=12;fontStyle=0;shape=mxgraph.aws4.group;grIcon=mxgraph.aws4.group_subnet;strokeColor=#879196;fillColor=none;verticalAlign=top;align=left;spacingLeft=30;fontColor=#879196;dashed=0;" parent="1" vertex="1">
          <mxGeometry x="661" y="151" width="160" height="170" as="geometry" />
        </mxCell>
        <mxCell id="AjvQf6BMv66kx0xezKMl-2" value="OnPREM" style="outlineConnect=0;gradientColor=none;html=1;whiteSpace=wrap;fontSize=12;fontStyle=0;shape=mxgraph.aws4.group;grIcon=mxgraph.aws4.group_vpc;strokeColor=#879196;fillColor=none;verticalAlign=top;align=left;spacingLeft=30;fontColor=#879196;dashed=0;" parent="1" vertex="1">
          <mxGeometry x="41" y="118" width="330" height="428" as="geometry" />
        </mxCell>
        <mxCell id="zHzab9P2DYDksBdTa2nC-9" value="" style="group" parent="1" vertex="1" connectable="0">
          <mxGeometry x="681" y="181" width="131" height="130" as="geometry" />
        </mxCell>
        <mxCell id="zHzab9P2DYDksBdTa2nC-12" value="" style="group" parent="zHzab9P2DYDksBdTa2nC-9" vertex="1" connectable="0">
          <mxGeometry x="1" width="130" height="130" as="geometry" />
        </mxCell>
        <mxCell id="zHzab9P2DYDksBdTa2nC-4" value="TOMCAT8&amp;nbsp;" style="points=[[0,0],[0.25,0],[0.5,0],[0.75,0],[1,0],[1,0.25],[1,0.5],[1,0.75],[1,1],[0.75,1],[0.5,1],[0.25,1],[0,1],[0,0.75],[0,0.5],[0,0.25]];outlineConnect=0;gradientColor=none;html=1;whiteSpace=wrap;fontSize=12;fontStyle=0;shape=mxgraph.aws4.group;grIcon=mxgraph.aws4.group_ec2_instance_contents;strokeColor=#D86613;fillColor=none;verticalAlign=top;align=left;spacingLeft=30;fontColor=#D86613;dashed=0;" parent="zHzab9P2DYDksBdTa2nC-12" vertex="1">
          <mxGeometry width="130" height="130" as="geometry" />
        </mxCell>
        <mxCell id="zHzab9P2DYDksBdTa2nC-6" value="JSP" style="rounded=1;whiteSpace=wrap;html=1;" parent="zHzab9P2DYDksBdTa2nC-12" vertex="1">
          <mxGeometry x="19" y="40" width="90" height="20" as="geometry" />
        </mxCell>
        <mxCell id="zHzab9P2DYDksBdTa2nC-17" value="JDBC Conn String" style="rounded=1;whiteSpace=wrap;html=1;" parent="zHzab9P2DYDksBdTa2nC-12" vertex="1">
          <mxGeometry x="5" y="60" width="120" height="30" as="geometry" />
        </mxCell>
        <mxCell id="zHzab9P2DYDksBdTa2nC-10" value="" style="group" parent="1" vertex="1" connectable="0">
          <mxGeometry x="659" y="371" width="130" height="170" as="geometry" />
        </mxCell>
        <mxCell id="zHzab9P2DYDksBdTa2nC-5" value="&lt;span style=&quot;font-size: 11px&quot;&gt;AURORA MYSQL&lt;/span&gt;" style="points=[[0,0],[0.25,0],[0.5,0],[0.75,0],[1,0],[1,0.25],[1,0.5],[1,0.75],[1,1],[0.75,1],[0.5,1],[0.25,1],[0,1],[0,0.75],[0,0.5],[0,0.25]];outlineConnect=0;gradientColor=none;html=1;whiteSpace=wrap;fontSize=12;fontStyle=0;shape=mxgraph.aws4.group;grIcon=mxgraph.aws4.group_ec2_instance_contents;strokeColor=#D86613;fillColor=none;verticalAlign=top;align=left;spacingLeft=30;fontColor=#D86613;dashed=0;" parent="zHzab9P2DYDksBdTa2nC-10" vertex="1">
          <mxGeometry width="130" height="170" as="geometry" />
        </mxCell>
        <mxCell id="zHzab9P2DYDksBdTa2nC-7" value="Schema&lt;br&gt;Stored Procedures&lt;br&gt;Data" style="rounded=1;whiteSpace=wrap;html=1;" parent="zHzab9P2DYDksBdTa2nC-10" vertex="1">
          <mxGeometry x="4" y="50" width="120" height="100" as="geometry" />
        </mxCell>
        <mxCell id="zHzab9P2DYDksBdTa2nC-13" value="" style="group" parent="1" vertex="1" connectable="0">
          <mxGeometry x="56" y="358" width="130" height="130" as="geometry" />
        </mxCell>
        <mxCell id="AjvQf6BMv66kx0xezKMl-7" value="ORACLE 11G&lt;br&gt;SALESDB&amp;nbsp;" style="points=[[0,0],[0.25,0],[0.5,0],[0.75,0],[1,0],[1,0.25],[1,0.5],[1,0.75],[1,1],[0.75,1],[0.5,1],[0.25,1],[0,1],[0,0.75],[0,0.5],[0,0.25]];outlineConnect=0;gradientColor=none;html=1;whiteSpace=wrap;fontSize=12;fontStyle=0;shape=mxgraph.aws4.group;grIcon=mxgraph.aws4.group_ec2_instance_contents;strokeColor=#D86613;fillColor=none;verticalAlign=top;align=left;spacingLeft=30;fontColor=#D86613;dashed=0;" parent="zHzab9P2DYDksBdTa2nC-13" vertex="1">
          <mxGeometry width="130" height="130" as="geometry" />
        </mxCell>
        <mxCell id="zHzab9P2DYDksBdTa2nC-2" value="Schema&lt;br&gt;Stored Procedures&lt;br&gt;Data" style="rounded=1;whiteSpace=wrap;html=1;" parent="zHzab9P2DYDksBdTa2nC-13" vertex="1">
          <mxGeometry x="4" y="50" width="120" height="60" as="geometry" />
        </mxCell>
        <mxCell id="zHzab9P2DYDksBdTa2nC-15" value="" style="group" parent="1" vertex="1" connectable="0">
          <mxGeometry x="56" y="166" width="130" height="140" as="geometry" />
        </mxCell>
        <mxCell id="AjvQf6BMv66kx0xezKMl-6" value="TOMCAT8&amp;nbsp;" style="points=[[0,0],[0.25,0],[0.5,0],[0.75,0],[1,0],[1,0.25],[1,0.5],[1,0.75],[1,1],[0.75,1],[0.5,1],[0.25,1],[0,1],[0,0.75],[0,0.5],[0,0.25]];outlineConnect=0;gradientColor=none;html=1;whiteSpace=wrap;fontSize=12;fontStyle=0;shape=mxgraph.aws4.group;grIcon=mxgraph.aws4.group_ec2_instance_contents;strokeColor=#D86613;fillColor=none;verticalAlign=top;align=left;spacingLeft=30;fontColor=#D86613;dashed=0;" parent="zHzab9P2DYDksBdTa2nC-15" vertex="1">
          <mxGeometry y="-10" width="130" height="130" as="geometry" />
        </mxCell>
        <mxCell id="zHzab9P2DYDksBdTa2nC-1" value="JSP" style="rounded=1;whiteSpace=wrap;html=1;" parent="zHzab9P2DYDksBdTa2nC-15" vertex="1">
          <mxGeometry x="20" y="40" width="90" height="20" as="geometry" />
        </mxCell>
        <mxCell id="zHzab9P2DYDksBdTa2nC-16" value="JDBC Conn String" style="rounded=1;whiteSpace=wrap;html=1;" parent="zHzab9P2DYDksBdTa2nC-15" vertex="1">
          <mxGeometry x="5" y="60" width="120" height="30" as="geometry" />
        </mxCell>
        <mxCell id="zHzab9P2DYDksBdTa2nC-18" value="" style="endArrow=classic;html=1;entryX=0.5;entryY=0;entryDx=0;entryDy=0;" parent="1" source="zHzab9P2DYDksBdTa2nC-16" target="AjvQf6BMv66kx0xezKMl-7" edge="1">
          <mxGeometry width="50" height="50" relative="1" as="geometry">
            <mxPoint x="41" y="578" as="sourcePoint" />
            <mxPoint x="91" y="528" as="targetPoint" />
          </mxGeometry>
        </mxCell>
        <mxCell id="zHzab9P2DYDksBdTa2nC-19" value="" style="endArrow=classic;html=1;exitX=0.5;exitY=1;exitDx=0;exitDy=0;" parent="1" source="zHzab9P2DYDksBdTa2nC-17" target="zHzab9P2DYDksBdTa2nC-5" edge="1">
          <mxGeometry width="50" height="50" relative="1" as="geometry">
            <mxPoint x="790.5" y="266" as="sourcePoint" />
            <mxPoint x="790.5" y="376" as="targetPoint" />
          </mxGeometry>
        </mxCell>
        <mxCell id="zHzab9P2DYDksBdTa2nC-23" value="AWS Database Migration Service" style="outlineConnect=0;fontColor=#232F3E;gradientColor=none;strokeColor=#ffffff;fillColor=#232F3E;dashed=0;verticalLabelPosition=middle;verticalAlign=bottom;align=center;html=1;whiteSpace=wrap;fontSize=10;fontStyle=1;spacing=3;shape=mxgraph.aws4.productIcon;prIcon=mxgraph.aws4.database_migration_service;" parent="1" vertex="1">
          <mxGeometry x="684" y="568" width="80" height="120" as="geometry" />
        </mxCell>
        <mxCell id="zHzab9P2DYDksBdTa2nC-39" value="Schema/Stored Procedures" style="text;html=1;strokeColor=none;fillColor=none;align=center;verticalAlign=middle;whiteSpace=wrap;rounded=0;" parent="1" vertex="1">
          <mxGeometry x="296.5" y="911" width="160" height="20" as="geometry" />
        </mxCell>
        <mxCell id="zHzab9P2DYDksBdTa2nC-43" value="Table Data" style="text;html=1;strokeColor=none;fillColor=none;align=center;verticalAlign=middle;whiteSpace=wrap;rounded=0;" parent="1" vertex="1">
          <mxGeometry x="287" y="834" width="160" height="20" as="geometry" />
        </mxCell>
        <mxCell id="thpAZCQ8_dKzy4YzaB0K-5" value="" style="group" vertex="1" connectable="0" parent="1">
          <mxGeometry x="226" y="358" width="130" height="130" as="geometry" />
        </mxCell>
        <mxCell id="thpAZCQ8_dKzy4YzaB0K-6" value="Windows Server" style="points=[[0,0],[0.25,0],[0.5,0],[0.75,0],[1,0],[1,0.25],[1,0.5],[1,0.75],[1,1],[0.75,1],[0.5,1],[0.25,1],[0,1],[0,0.75],[0,0.5],[0,0.25]];outlineConnect=0;gradientColor=none;html=1;whiteSpace=wrap;fontSize=12;fontStyle=0;shape=mxgraph.aws4.group;grIcon=mxgraph.aws4.group_ec2_instance_contents;strokeColor=#D86613;fillColor=none;verticalAlign=top;align=left;spacingLeft=30;fontColor=#D86613;dashed=0;" vertex="1" parent="thpAZCQ8_dKzy4YzaB0K-5">
          <mxGeometry width="130" height="130" as="geometry" />
        </mxCell>
        <mxCell id="zHzab9P2DYDksBdTa2nC-21" value="&lt;font color=&quot;#000000&quot;&gt;Schema &lt;br&gt;Conversion &lt;br&gt;Tool&lt;/font&gt;" style="shape=image;html=1;verticalAlign=top;verticalLabelPosition=bottom;labelBackgroundColor=#ffffff;imageAspect=0;aspect=fixed;image=https://cdn0.iconfinder.com/data/icons/social-flat-rounded-rects/512/aws-128.png" parent="thpAZCQ8_dKzy4YzaB0K-5" vertex="1">
          <mxGeometry x="46" y="29" width="50" height="50" as="geometry" />
        </mxCell>
        <mxCell id="thpAZCQ8_dKzy4YzaB0K-8" value="10.100.0.0/16&lt;br&gt;" style="text;html=1;strokeColor=none;fillColor=none;align=center;verticalAlign=middle;whiteSpace=wrap;rounded=0;" vertex="1" parent="1">
          <mxGeometry x="142" y="121" width="40" height="20" as="geometry" />
        </mxCell>
        <mxCell id="thpAZCQ8_dKzy4YzaB0K-9" value="10.200.0.0/16" style="text;html=1;strokeColor=none;fillColor=none;align=center;verticalAlign=middle;whiteSpace=wrap;rounded=0;" vertex="1" parent="1">
          <mxGeometry x="654" y="124" width="40" height="17" as="geometry" />
        </mxCell>
        <mxCell id="thpAZCQ8_dKzy4YzaB0K-15" value="" style="shape=flexArrow;endArrow=classic;startArrow=classic;html=1;" edge="1" parent="1">
          <mxGeometry width="50" height="50" relative="1" as="geometry">
            <mxPoint x="289.5" y="72" as="sourcePoint" />
            <mxPoint x="462.5" y="72" as="targetPoint" />
          </mxGeometry>
        </mxCell>
        <mxCell id="thpAZCQ8_dKzy4YzaB0K-16" value="VPC Peering&lt;br&gt;Direct Connect Emulating" style="text;html=1;strokeColor=none;fillColor=none;align=center;verticalAlign=middle;whiteSpace=wrap;rounded=1;" vertex="1" parent="1">
          <mxGeometry x="293.5" y="89" width="160" height="20" as="geometry" />
        </mxCell>
        <mxCell id="thpAZCQ8_dKzy4YzaB0K-18" value="&lt;font color=&quot;#000000&quot;&gt;&amp;nbsp; IT Admin&amp;nbsp;&amp;nbsp;&lt;br&gt;&lt;/font&gt;" style="shape=umlActor;verticalLabelPosition=bottom;labelBackgroundColor=#ffffff;verticalAlign=top;html=1;outlineConnect=0;rounded=1;" vertex="1" parent="1">
          <mxGeometry x="273.5" y="683" width="30" height="60" as="geometry" />
        </mxCell>
        <mxCell id="thpAZCQ8_dKzy4YzaB0K-26" value="" style="endArrow=classic;html=1;exitX=1;exitY=0.5;exitDx=0;exitDy=0;entryX=0;entryY=0.5;entryDx=0;entryDy=0;" edge="1" parent="1" source="AjvQf6BMv66kx0xezKMl-7" target="thpAZCQ8_dKzy4YzaB0K-6">
          <mxGeometry width="50" height="50" relative="1" as="geometry">
            <mxPoint x="221" y="523" as="sourcePoint" />
            <mxPoint x="271" y="473" as="targetPoint" />
          </mxGeometry>
        </mxCell>
      </root>
    </mxGraphModel>
  </diagram>
</mxfile>
